<svg width="111" height="70" viewBox="0 0 111 70" fill="none" xmlns="http://www.w3.org/2000/svg">
<path d="M52.0694 38.3596C53.8902 39.3788 56.1098 39.3788 57.9306 38.3596L105.941 11.4856C111.335 8.46659 109.192 0.25 103.011 0.25H6.98912C0.808127 0.25 -1.33502 8.46658 4.05851 11.4856L52.0694 38.3596Z" fill="white"/>
<path d="M58.6031 48.9122C56.695 50.0653 54.305 50.0653 52.3969 48.9122L41.4493 42.2968L3.44894 69.4322C4.22311 69.7964 5.08779 70 6 70H105C105.626 70 106.229 69.9043 106.796 69.7267L68.9148 42.6811L58.6031 48.9122Z" fill="white"/>
<path d="M0 63.6543L35.1986 38.5196L1.61405 18.225C0.961372 17.8306 0.425716 17.3598 0 16.838V63.6543Z" fill="white"/>
<path d="M111 64C111 64.1598 110.994 64.3182 110.981 64.4749L75.1658 38.9037L109.386 18.225C110.039 17.8306 110.574 17.3598 111 16.838V64Z" fill="white"/>
</svg>
