<?xml version="1.0" standalone="no"?>
<!DOCTYPE svg PUBLIC "-//W3C//DTD SVG 20010904//EN"
 "http://www.w3.org/TR/2001/REC-SVG-20010904/DTD/svg10.dtd">
<svg version="1.0" xmlns="http://www.w3.org/2000/svg"
 width="480.000000pt" height="480.000000pt" viewBox="0 0 480.000000 480.000000"
 preserveAspectRatio="xMidYMid meet">
<metadata>
Created by potrace 1.14, written by Peter Selinger 2001-2017
</metadata>
<g transform="translate(0.000000,480.000000) scale(0.100000,-0.100000)"
fill="#000000" stroke="none">
<path d="M780 4521 c0 -8 14 -80 25 -131 3 -14 8 -41 11 -60 2 -19 9 -57 15
-85 16 -75 17 -79 43 -224 14 -74 29 -138 34 -143 4 -4 526 -9 1160 -10 934
-1 1152 -4 1156 -15 5 -11 -19 -69 -34 -83 -3 -3 -43 -79 -89 -170 -46 -91
-115 -225 -152 -297 -126 -244 -212 -407 -245 -470 -18 -35 -30 -63 -26 -63 4
0 2 -4 -3 -8 -6 -4 -35 -54 -64 -112 -30 -58 -75 -145 -101 -195 -26 -49 -85
-164 -131 -255 -46 -91 -86 -167 -89 -170 -3 -3 -39 -72 -80 -155 -41 -82 -77
-152 -80 -155 -3 -3 -43 -81 -90 -175 -47 -93 -87 -172 -90 -175 -3 -3 -29
-52 -58 -110 -123 -241 -165 -320 -174 -320 -4 0 -2 10 6 23 33 53 75 137 68
137 -4 0 -2 4 4 8 6 4 24 34 40 67 16 33 31 62 34 65 3 3 38 70 78 150 68 135
73 149 67 190 -3 25 -17 115 -31 200 -13 85 -29 187 -35 225 -6 39 -13 84 -16
100 -2 17 -6 41 -8 55 -1 14 -5 41 -9 60 -3 19 -18 112 -32 205 -14 94 -26
179 -28 190 -2 11 -7 45 -11 75 -4 30 -9 58 -10 61 -2 3 -7 28 -10 55 -8 67
-14 104 -20 134 -3 14 -7 43 -10 65 -3 22 -7 51 -10 65 -2 14 -6 41 -9 60 -13
97 -38 261 -46 310 -5 30 -12 73 -15 95 -4 22 -8 47 -10 55 -2 8 -7 42 -11 75
-3 33 -8 69 -10 80 -3 11 -7 38 -10 60 -4 22 -10 42 -15 45 -7 5 -725 6 -752
1 -5 0 -6 -9 -3 -18 3 -10 8 -34 11 -53 3 -19 24 -129 46 -245 22 -115 42
-221 44 -235 2 -14 8 -45 14 -70 5 -25 19 -97 31 -160 11 -63 29 -160 40 -215
21 -107 23 -118 40 -210 6 -33 22 -116 35 -185 13 -69 26 -138 29 -154 3 -16
10 -54 17 -85 6 -30 12 -64 14 -75 1 -12 14 -84 29 -161 32 -172 33 -178 46
-240 5 -27 12 -65 15 -84 3 -19 7 -37 9 -40 2 -3 7 -24 10 -46 4 -22 18 -98
31 -170 13 -71 26 -141 29 -155 2 -14 23 -124 46 -245 23 -121 44 -233 46
-250 3 -16 7 -37 10 -45 3 -8 8 -33 11 -55 6 -49 15 -66 28 -57 6 4 39 66 74
137 71 143 101 198 107 192 2 -2 -8 -26 -22 -53 -77 -143 -154 -298 -154 -309
0 -7 8 -15 18 -19 17 -6 179 -90 344 -178 48 -26 95 -51 105 -56 10 -5 38 -20
62 -32 63 -33 43 -60 267 380 49 96 91 177 94 180 3 3 30 55 60 115 30 61 57
112 60 115 3 3 24 43 48 90 39 78 193 377 329 640 30 58 59 111 65 118 6 6 8
12 5 12 -3 0 14 36 39 80 24 45 45 86 47 93 1 7 4 14 7 17 7 7 64 116 279 533
44 86 105 203 135 260 74 140 181 348 289 557 49 96 119 231 155 300 35 69 94
181 130 250 35 69 69 131 74 138 6 6 7 12 3 12 -4 0 -3 6 2 13 6 6 45 80 88
162 43 83 82 155 86 161 5 6 6 14 2 17 -10 10 -3553 8 -3553 -2z"/>
</g>
</svg>
