<svg xmlns="http://www.w3.org/2000/svg" xmlns:xlink="http://www.w3.org/1999/xlink" version="1.1" id="Layer_1" x="0px" y="0px" style="enable-background:new 0 0 1366 768;" xml:space="preserve" viewBox="426.28 320.67 513.54 127.82">
<style type="text/css">
	.st0{fill:#010101;}
	.st1{fill:#FE7301;}
</style>
<g>
	<g>
		<path class="st0" d="M939.51,445.38c-6.05,0-11.64,0.17-17.21-0.12c-1.39-0.07-3.08-1.34-3.97-2.54    c-5.75-7.74-11.29-15.65-16.97-23.45c-11.98-16.48-24-32.93-36.01-49.39c-1.83-2.51-3.67-5.03-6.07-8.33c0,28.44,0,55.91,0,83.62    c-6.98,0-13.75,0-20.84,0c0-40.72,0-81.47,0-122.65c5.79,0,11.71-0.06,17.63,0.08c0.72,0.02,1.57,1.01,2.1,1.73    c14.77,20.31,29.5,40.65,44.24,60.98c3.87,5.34,7.71,10.7,11.71,15.95c0.67,0.87,2.05,1.2,4.04,2.3c0-27.61,0-54.17,0-81.08    c6.93,0,13.23-0.06,19.52,0.09c0.7,0.02,1.5,1.12,2,1.89c0.28,0.43,0.05,1.21,0.05,1.83c0,38.34,0,76.69,0,115.03    C939.71,442.52,939.59,443.73,939.51,445.38z"/>
		<path class="st0" d="M817.57,445.34c-24.92,0-49.83,0-75.13,0c0-41.02,0-81.76,0-122.87c1.21,0,2.55,0,3.88,0    c21.71,0,43.42,0.01,65.13-0.02c1.33,0,2.66-0.28,3.99-0.43c0.05,0.18,0.1,0.35,0.15,0.51c0.19-0.18,0.37-0.37,0.56-0.55    c0.33,1.26,0.66,2.53,0.98,3.79c0.08,0.85,0.16,1.7,0.24,2.55c-0.22,4.55-0.44,9.1-0.67,14.05c-17.46,0-35,0-52.81,0    c0,10.09,0,19.79,0,29.91c16.06,0,32.12,0,48.2,0c0,6.83,0,13.24,0,19.99c-16.03,0-31.96,0-48.48,0c0,1.98,0,3.65,0,5.31    c0,8.18-0.06,16.37,0.07,24.55c0.02,1.08,0.94,2.14,1.44,3.21c0.29-0.06,0.59-0.12,0.89-0.18c17.19,0,34.37,0,51.53,0    c0,6.98,0,13.59,0,20.19C817.53,445.35,817.57,445.34,817.57,445.34z"/>
		<path class="st0" d="M609.7,445.36c-24.4,0-48.81,0-73.74,0c0-1.65,0-3.08,0-4.51c0-36.69,0.02-73.38,0-110.08    c0-2.53-0.2-5.06-0.32-7.58c0,0,0.13-0.06,0.13-0.06l-0.1-0.08c1.08-0.19,2.16-0.55,3.24-0.55c23.07-0.04,46.15-0.03,69.22-0.03    c0.61,0,1.21,0.09,2.08,0.16c0,6.6,0,13.08,0,19.95c-17.61,0-35.15,0-52.83,0c0,10.02,0,19.66,0,29.67c16.13,0,32.18,0,48.38,0    c0,6.86,0,13.35,0,20.11c-16.08,0-32.03,0-48.25,0c0,10.98,0,21.7,0,32.81c17.86,0,35.77,0,53.99,0c0,6.78,0.01,13.17-0.03,19.56    c0,0.22-0.51,0.43-0.78,0.64C610.36,445.36,610.03,445.36,609.7,445.36z"/>
		<path class="st0" d="M426.28,422.33c5.5-4.52,10.73-8.81,15.31-12.57c4.91,4.48,9.18,9.25,14.31,12.76    c3.59,2.45,8.28,3.95,12.65,4.45c4.33,0.5,8.91-0.57,13.3-1.35c5.36-0.95,10.26-5.79,10.81-10.14c0.83-6.54-1.34-11.63-7.14-14.41    c-7.35-3.52-14.92-6.61-22.51-9.58c-9.87-3.87-18.75-8.94-25.4-17.54c-6.54-8.46-7.69-23.26-2.52-32.59    c4.55-8.21,10.94-14.28,19.59-17.66c7.66-3,15.61-3.7,23.92-2.41c9.33,1.44,17.67,4.76,25.03,10.54c3.07,2.41,5.8,5.25,8.63,7.85    c-5.05,5.03-9.76,9.71-14.18,14.11c-4.41-3.28-8.59-7.18-13.46-9.81c-5.9-3.19-12.58-4.67-19.23-2.36    c-4.44,1.55-8.33,4.18-10.72,8.64c-3.3,6.15,0.1,13.37,4.17,15.65c5.56,3.1,11.28,6.04,17.22,8.29    c10.87,4.12,21.92,8.14,30.37,16.22c3.61,3.45,5.5,9.28,6.83,14.38c1.25,4.76,1.58,10.13,0.72,14.96    c-0.76,4.29-3.18,8.56-5.78,12.18c-6.31,8.76-15.47,13.12-25.97,14.53c-9.07,1.22-18.18,1.5-27.08-1.3    C442.7,441.28,433.76,432.95,426.28,422.33z"/>
		<path class="st1" d="M627.57,342.42c-1.05-4.95-2.12-9.9-3.13-14.87c-0.29-1.41-0.37-2.86-0.6-4.7c35.07,0,70.12,0,105.52,0    c-0.53,1.33-0.97,2.78-1.66,4.11c-8.7,16.78-17.44,33.54-26.16,50.31c-8.03,15.46-16.08,30.9-24.04,46.39    c-3.95,7.68-7.58,15.52-11.68,23.12c-0.59,1.09-3.45,2.08-4.54,1.58c-5.18-2.42-10.11-5.36-15.11-8.16    c-0.16-0.09-0.04-0.69-0.04-1.05c2.31-4.21,4.71-8.37,6.91-12.64c2.79-5.39,5.42-10.87,8.11-16.31c0.42-0.6,0.91-1.16,1.25-1.8    c9.49-18.43,18.96-36.86,28.45-55.29c1.73-3.36,3.55-6.69,5.51-10.38c-15.8,0-30.87,0-45.93,0    C642.82,342.63,635.19,342.53,627.57,342.42z"/>
		<path class="st0" d="M661.16,410.21c-2.7,5.44-5.33,10.91-8.11,16.31c-2.2,4.26-4.6,8.43-6.91,12.64    c-1.26-5.32-2.72-10.61-3.75-15.98c-1.66-8.62-2.97-17.31-4.58-25.94c-1.54-8.26-3.34-16.46-4.88-24.72    c-1.87-10.02-3.58-20.06-5.35-30.09c7.62,0.11,15.24,0.21,22.86,0.32c0.76,5,1.58,10,2.28,15.02c1.06,7.54,1.95,15.11,3.07,22.64    c1.1,7.39,2.37,14.76,3.65,22.12C659.89,405.1,660.58,407.64,661.16,410.21z"/>
		<path class="st1" d="M817.37,328.33c-0.08-0.85-0.16-1.7-0.24-2.55C817.21,326.63,817.29,327.48,817.37,328.33z"/>
		<path class="st1" d="M766,425.17c-0.3,0.06-0.59,0.12-0.89,0.18c0.19-0.72,0.37-1.44,0.56-2.17c0.24,0.06,0.48,0.12,0.72,0.18    C766.26,423.96,766.13,424.57,766,425.17z"/>
		<path class="st1" d="M609.7,445.36c0.33,0,0.66,0,0.98,0.01c0.09,0.24,0.19,0.47,0.28,0.71c-0.56-0.01-1.12-0.01-1.68-0.02    C609.43,445.82,609.56,445.59,609.7,445.36z"/>
		<path class="st1" d="M816.15,321.99c-0.19,0.18-0.37,0.37-0.56,0.55c-0.05-0.17-0.1-0.34-0.15-0.51    C815.68,322.01,815.91,322,816.15,321.99z"/>
		<path class="st1" d="M535.67,323.04l0.1,0.08c0,0-0.13,0.06-0.13,0.06c-0.21,0-0.42,0-0.64,0c0.05-0.17,0.1-0.34,0.14-0.5    C535.32,322.81,535.49,322.93,535.67,323.04z"/>
		<path class="st1" d="M817.57,445.34c0,0-0.04,0.01-0.04,0.01c0.02,0.21,0.05,0.43,0.04,0.38    C817.57,445.78,817.57,445.56,817.57,445.34z"/>
	</g>
</g>
</svg>