<?xml version="1.0" encoding="utf-8"?>
<!-- Generator: Adobe Illustrator 27.2.0, SVG Export Plug-In . SVG Version: 6.00 Build 0)  -->
<svg version="1.1" xmlns="http://www.w3.org/2000/svg" xmlns:xlink="http://www.w3.org/1999/xlink" x="0px" y="0px"
	 viewBox="0 0 398.8 124" style="enable-background:new 0 0 398.8 124;" xml:space="preserve">
<style type="text/css">
	.st0{fill:#3AF894;}
	.st1{fill:#FB8C0F;}
	.st2{fill:#FFFFFF;}
</style>
<g id="Layer_1">
</g>
<g id="Layer_2">
	<g>
		<g>
			<path class="st0" d="M30.6,87c0,1.4,0,2.7,0,4c0,6,0,12.1,0,18.1c0,2.6,0,2.5-2.5,2.5c-7,0-13.9,0-20.9,0c-1.1,0-1.8,0-1.8-1.4
				c0-7.6,0-15.3,0.1-22.9c0-0.1,0.1-0.2,0.2-0.5C13.8,87,22,87,30.6,87z"/>
			<path class="st1" d="M135.3,86.9c8.2,0,16.3,0,24.5,0c0,8.1,0,16.3,0,24.6c-8.1,0-16.2,0-24.5,0
				C135.3,103.4,135.3,95.3,135.3,86.9z"/>
			<path class="st1" d="M159.9,7.1c0,8.4,0,16.5,0,24.8c-8.2,0-16.4,0-24.7,0c0-2.4,0-4.6,0-6.9c0-5.4,0-10.8,0-16.1
				c0-1,0-1.8,1.4-1.8C144.3,7.1,152,7.1,159.9,7.1z"/>
			<path class="st1" d="M159.9,85.1c-8.3,0-16.4,0-24.6,0c0-8.3,0-16.4,0-24.6c8.2,0,16.4,0,24.6,0
				C159.9,68.7,159.9,76.9,159.9,85.1z"/>
			<path class="st1" d="M82.5,86.8c7.9,0,15.6,0,23.3,0.1c0.4,0,1.2,0.8,1.2,1.3c0.1,7.3,0.1,14.6,0.1,21.9c0,1.2-0.5,1.6-1.7,1.6
				c-7.2,0-14.4,0-21.5,0c-0.9,0-1.7-0.1-1.7-1.3c0.1-7.4,0.1-14.9,0.2-22.3C82.3,87.7,82.4,87.4,82.5,86.8z"/>
			<path class="st1" d="M133.4,87c0,8.1,0,16.3,0,24.5c-8.2,0-16.4,0-24.6,0c0-8.2,0-16.3,0-24.5C117,87,125.1,87,133.4,87z"/>
			<path class="st1" d="M55.8,86.9c8.3,0,16.3,0,24.7,0c0,1.6,0,3,0,4.5c0,6.2,0,12.4,0,18.5c0,1.1-0.1,1.7-1.4,1.7
				c-7.3,0-14.6,0-21.9-0.1c-0.5,0-1.4-0.8-1.5-1.3c-0.1-7.5,0-15,0-22.5C55.6,87.6,55.7,87.3,55.8,86.9z"/>
			<path class="st1" d="M133.4,60.5c0,8.3,0,16.4,0,24.6c-8.2,0-16.4,0-24.6,0c0-8.2,0-16.4,0-24.6
				C117.1,60.5,125.1,60.5,133.4,60.5z"/>
			<path class="st1" d="M159.8,58.5c-3.5,0-7,0-10.4,0c-4,0-8.1-0.1-12.1,0c-1.8,0.1-2.2-0.6-2.2-2.3c0.1-6.7,0.1-13.4,0-20.1
				c0-1.9,0.7-2.5,2.3-2.5c3.9,0,7.8,0,11.7,0c3.5,0,7,0,10.6,0C159.8,42,159.8,50.1,159.8,58.5z"/>
			<path class="st1" d="M108.7,58.2c0-2,0-3.9,0-5.8c0-5.6,0-11.2,0-16.7c0-1.6,0.5-2.1,2-2c6.9,0.1,13.8,0.1,20.7,0
				c1.5,0,2.1,0.5,2.1,2.1c-0.1,7,0,14.1,0,21.1c0,1-0.2,1.7-1.4,1.7c-7.5,0-15-0.1-22.5-0.1C109.4,58.4,109.3,58.3,108.7,58.2z"/>
			<path class="st1" d="M106.7,85.1c-8,0-16,0-24.3,0c-0.1-0.7-0.2-1.4-0.2-2.1c0-6.8,0-13.7,0-20.5c0-1.6,0.3-2.2,2.1-2.2
				c6.9,0.1,13.8,0,20.7,0c1.1,0,1.9,0.1,1.9,1.6c-0.1,7.4,0,14.9,0,22.3C106.9,84.5,106.8,84.8,106.7,85.1z"/>
		</g>
	</g>
	<g>
		<path class="st2" d="M183.8,81.6c3.9,2.4,9.6,4.4,15.6,4.4c8.9,0,14.1-4.7,14.1-11.5c0-6.3-3.6-9.9-12.7-13.4
			c-11-3.9-17.8-9.6-17.8-19.1c0-10.5,8.7-18.3,21.8-18.3c6.9,0,11.9,1.6,14.9,3.3l-2.4,7.1c-2.2-1.2-6.7-3.2-12.8-3.2
			c-9.2,0-12.7,5.5-12.7,10.1c0,6.3,4.1,9.4,13.4,13c11.4,4.4,17.2,9.9,17.2,19.8c0,10.4-7.7,19.4-23.6,19.4
			c-6.5,0-13.6-1.9-17.2-4.3L183.8,81.6z"/>
		<path class="st2" d="M247.1,32.2h-20.5v-7.4h49.9v7.4h-20.6v60h-8.8V32.2z"/>
		<path class="st2" d="M318.9,60.6h-26.2V85h29.2v7.3H284V24.8h36.4v7.3h-27.7v21.3h26.2V60.6z"/>
		<path class="st2" d="M333.2,25.6c4.2-0.7,9.7-1.3,16.7-1.3c8.6,0,14.9,2,18.9,5.6c3.7,3.2,5.9,8.1,5.9,14.1
			c0,6.1-1.8,10.9-5.2,14.4c-4.6,4.9-12.1,7.4-20.6,7.4c-2.6,0-5-0.1-7-0.6v27h-8.7V25.6z M341.9,58.1c1.9,0.5,4.3,0.7,7.2,0.7
			c10.5,0,16.9-5.1,16.9-14.4c0-8.9-6.3-13.2-15.9-13.2c-3.8,0-6.7,0.3-8.2,0.7V58.1z"/>
	</g>
	<g>
		<path class="st2" d="M175.5,106.7c0.4,0.3,1.1,0.5,1.7,0.5c1,0,1.6-0.5,1.6-1.3c0-0.7-0.4-1.1-1.4-1.5c-1.2-0.4-2-1.1-2-2.1
			c0-1.2,1-2,2.4-2c0.8,0,1.3,0.2,1.6,0.4l-0.3,0.8c-0.2-0.1-0.7-0.4-1.4-0.4c-1,0-1.4,0.6-1.4,1.1c0,0.7,0.5,1,1.5,1.4
			c1.3,0.5,1.9,1.1,1.9,2.2c0,1.1-0.8,2.1-2.6,2.1c-0.7,0-1.5-0.2-1.9-0.5L175.5,106.7z"/>
		<path class="st2" d="M182,100.4v4.4c0,1.7,0.7,2.4,1.7,2.4c1.1,0,1.8-0.7,1.8-2.4v-4.4h1v4.3c0,2.3-1.2,3.2-2.8,3.2
			c-1.5,0-2.7-0.9-2.7-3.2v-4.4H182z"/>
		<path class="st2" d="M189.5,101.2h-2.3v-0.8h5.5v0.8h-2.3v6.6h-1V101.2z"/>
		<path class="st2" d="M193.6,100.5c0.6-0.1,1.3-0.2,2-0.2c1.4,0,2.4,0.3,3,0.9c0.7,0.6,1,1.5,1,2.7c0,1.2-0.4,2.2-1.1,2.9
			c-0.7,0.7-1.8,1.1-3.3,1.1c-0.7,0-1.3,0-1.7-0.1V100.5z M194.6,107.1c0.2,0,0.6,0.1,1,0.1c2,0,3.2-1.1,3.2-3.1c0-1.7-1-2.9-3-2.9
			c-0.5,0-0.9,0-1.1,0.1V107.1z"/>
		<path class="st2" d="M204.2,101.2H202v-0.8h5.5v0.8h-2.3v6.6h-1V101.2z"/>
		<path class="st2" d="M208,105.3c0,1.3,0.9,1.8,1.8,1.8c0.7,0,1.1-0.1,1.5-0.3l0.2,0.7c-0.3,0.2-0.9,0.3-1.8,0.3
			c-1.6,0-2.6-1.1-2.6-2.7s0.9-2.9,2.5-2.9c1.7,0,2.2,1.5,2.2,2.5c0,0.2,0,0.4,0,0.5H208z M210.8,104.7c0-0.6-0.3-1.6-1.3-1.6
			c-1,0-1.4,0.9-1.5,1.6H210.8z"/>
		<path class="st2" d="M216.8,107.6c-0.3,0.1-0.8,0.3-1.5,0.3c-1.6,0-2.7-1.1-2.7-2.7c0-1.6,1.1-2.8,2.9-2.8c0.6,0,1.1,0.1,1.3,0.3
			l-0.2,0.7c-0.2-0.1-0.6-0.3-1.1-0.3c-1.2,0-1.9,0.9-1.9,2c0,1.2,0.8,2,1.8,2c0.5,0,0.9-0.1,1.2-0.3L216.8,107.6z"/>
		<path class="st2" d="M217.9,100h1v3.3h0c0.2-0.3,0.4-0.5,0.7-0.7c0.3-0.2,0.6-0.3,1-0.3c0.7,0,1.9,0.4,1.9,2.3v3.2h-1v-3.1
			c0-0.9-0.3-1.6-1.2-1.6c-0.6,0-1.1,0.4-1.3,1c-0.1,0.1-0.1,0.3-0.1,0.5v3.2h-1V100z"/>
		<path class="st2" d="M224,103.9c0-0.5,0-1,0-1.4h0.9l0.1,0.9h0c0.3-0.5,0.9-1,1.8-1c0.7,0,1.9,0.4,1.9,2.3v3.2h-1v-3.1
			c0-0.9-0.3-1.6-1.2-1.6c-0.6,0-1.1,0.5-1.3,1c0,0.1-0.1,0.3-0.1,0.5v3.2h-1V103.9z"/>
		<path class="st2" d="M234.9,105.1c0,2-1.4,2.8-2.7,2.8c-1.4,0-2.6-1.1-2.6-2.7c0-1.8,1.2-2.8,2.6-2.8
			C233.9,102.4,234.9,103.5,234.9,105.1z M230.7,105.2c0,1.2,0.7,2,1.6,2c0.9,0,1.6-0.9,1.6-2.1c0-0.9-0.5-2-1.6-2
			C231.2,103.1,230.7,104.2,230.7,105.2z"/>
		<path class="st2" d="M236.1,100h1v7.8h-1V100z"/>
		<path class="st2" d="M243.6,105.1c0,2-1.4,2.8-2.7,2.8c-1.4,0-2.6-1.1-2.6-2.7c0-1.8,1.2-2.8,2.6-2.8
			C242.5,102.4,243.6,103.5,243.6,105.1z M239.3,105.2c0,1.2,0.7,2,1.6,2c0.9,0,1.6-0.9,1.6-2.1c0-0.9-0.5-2-1.6-2
			C239.8,103.1,239.3,104.2,239.3,105.2z"/>
		<path class="st2" d="M249.4,102.5c0,0.4,0,0.8,0,1.5v3.1c0,1.2-0.2,2-0.8,2.4c-0.5,0.5-1.3,0.6-1.9,0.6c-0.6,0-1.3-0.2-1.8-0.4
			l0.2-0.7c0.4,0.2,0.9,0.4,1.6,0.4c1,0,1.7-0.5,1.7-1.9v-0.6h0c-0.3,0.5-0.9,0.9-1.7,0.9c-1.3,0-2.3-1.1-2.3-2.6
			c0-1.8,1.2-2.8,2.4-2.8c0.9,0,1.4,0.5,1.7,0.9h0l0-0.8H249.4z M248.4,104.6c0-0.2,0-0.3-0.1-0.4c-0.2-0.6-0.6-1-1.4-1
			c-0.9,0-1.6,0.8-1.6,2c0,1,0.5,1.9,1.6,1.9c0.6,0,1.1-0.4,1.3-1c0.1-0.2,0.1-0.4,0.1-0.5V104.6z"/>
		<path class="st2" d="M251.3,102.5l1.2,3.1c0.1,0.4,0.3,0.8,0.3,1.1h0c0.1-0.3,0.2-0.7,0.3-1.1l1.1-3.1h1l-1.5,3.8
			c-0.7,1.8-1.2,2.8-1.8,3.3c-0.5,0.4-0.9,0.6-1.2,0.6l-0.2-0.8c0.2-0.1,0.6-0.2,0.8-0.5c0.3-0.2,0.6-0.6,0.8-1.1
			c0-0.1,0.1-0.2,0.1-0.2s0-0.1-0.1-0.3l-2-4.9H251.3z"/>
		<path class="st2" d="M262.3,104.4h-2.9v2.7h3.2v0.8h-4.2v-7.4h4v0.8h-3v2.3h2.9V104.4z"/>
		<path class="st2" d="M263.8,103.9c0-0.5,0-1,0-1.4h0.9l0.1,0.9h0c0.3-0.5,0.9-1,1.8-1c0.7,0,1.9,0.4,1.9,2.3v3.2h-1v-3.1
			c0-0.9-0.3-1.6-1.2-1.6c-0.6,0-1.1,0.5-1.3,1c0,0.1-0.1,0.3-0.1,0.5v3.2h-1V103.9z"/>
		<path class="st2" d="M271.1,101v1.5h1.4v0.7h-1.4v2.9c0,0.7,0.2,1,0.7,1c0.3,0,0.4,0,0.6-0.1l0,0.7c-0.2,0.1-0.5,0.1-0.9,0.1
			c-0.5,0-0.8-0.1-1-0.4c-0.3-0.3-0.4-0.8-0.4-1.4v-2.9h-0.8v-0.7h0.8v-1.3L271.1,101z"/>
		<path class="st2" d="M273.6,104.2c0-0.6,0-1.2,0-1.7h0.8l0,1h0c0.2-0.7,0.8-1.2,1.5-1.2c0.1,0,0.2,0,0.3,0v0.9c-0.1,0-0.2,0-0.3,0
			c-0.7,0-1.2,0.5-1.3,1.2c0,0.1,0,0.3,0,0.5v2.8h-1V104.2z"/>
		<path class="st2" d="M277.6,105.3c0,1.3,0.9,1.8,1.8,1.8c0.7,0,1.1-0.1,1.5-0.3l0.2,0.7c-0.3,0.2-0.9,0.3-1.8,0.3
			c-1.6,0-2.6-1.1-2.6-2.7s0.9-2.9,2.5-2.9c1.7,0,2.2,1.5,2.2,2.5c0,0.2,0,0.4,0,0.5H277.6z M280.4,104.7c0-0.6-0.3-1.6-1.3-1.6
			c-1,0-1.4,0.9-1.5,1.6H280.4z"/>
		<path class="st2" d="M282.5,104.2c0-0.7,0-1.2,0-1.7h0.9l0,0.9h0c0.4-0.6,1-1,1.9-1c1.3,0,2.3,1.1,2.3,2.7c0,1.9-1.2,2.9-2.4,2.9
			c-0.7,0-1.3-0.3-1.6-0.8h0v2.9h-1V104.2z M283.5,105.7c0,0.1,0,0.3,0,0.4c0.2,0.7,0.8,1.1,1.5,1.1c1,0,1.6-0.8,1.6-2.1
			c0-1.1-0.6-2-1.6-2c-0.7,0-1.3,0.5-1.5,1.2c0,0.1-0.1,0.3-0.1,0.4V105.7z"/>
		<path class="st2" d="M288.8,104.2c0-0.6,0-1.2,0-1.7h0.8l0,1h0c0.2-0.7,0.8-1.2,1.5-1.2c0.1,0,0.2,0,0.3,0v0.9c-0.1,0-0.2,0-0.3,0
			c-0.7,0-1.2,0.5-1.3,1.2c0,0.1,0,0.3,0,0.5v2.8h-1V104.2z"/>
		<path class="st2" d="M292.8,105.3c0,1.3,0.9,1.8,1.8,1.8c0.7,0,1.1-0.1,1.5-0.3l0.2,0.7c-0.3,0.2-0.9,0.3-1.8,0.3
			c-1.6,0-2.6-1.1-2.6-2.7s0.9-2.9,2.5-2.9c1.7,0,2.2,1.5,2.2,2.5c0,0.2,0,0.4,0,0.5H292.8z M295.7,104.7c0-0.6-0.3-1.6-1.3-1.6
			c-1,0-1.4,0.9-1.5,1.6H295.7z"/>
		<path class="st2" d="M297.8,103.9c0-0.5,0-1,0-1.4h0.9l0.1,0.9h0c0.3-0.5,0.9-1,1.8-1c0.7,0,1.9,0.4,1.9,2.3v3.2h-1v-3.1
			c0-0.9-0.3-1.6-1.2-1.6c-0.6,0-1.1,0.5-1.3,1c0,0.1-0.1,0.3-0.1,0.5v3.2h-1V103.9z"/>
		<path class="st2" d="M304.4,105.3c0,1.3,0.9,1.8,1.8,1.8c0.7,0,1.1-0.1,1.5-0.3l0.2,0.7c-0.3,0.2-0.9,0.3-1.8,0.3
			c-1.6,0-2.6-1.1-2.6-2.7s0.9-2.9,2.5-2.9c1.7,0,2.2,1.5,2.2,2.5c0,0.2,0,0.4,0,0.5H304.4z M307.3,104.7c0-0.6-0.3-1.6-1.3-1.6
			c-1,0-1.4,0.9-1.5,1.6H307.3z"/>
		<path class="st2" d="M313.9,106.4c0,0.5,0,1,0,1.5h-0.9L313,107h0c-0.3,0.4-0.8,1-1.8,1c-0.8,0-1.8-0.5-1.8-2.3v-3.1h1v2.9
			c0,1,0.3,1.7,1.2,1.7c0.6,0,1.1-0.5,1.3-0.9c0.1-0.1,0.1-0.3,0.1-0.5v-3.3h1V106.4z"/>
		<path class="st2" d="M315.5,104.2c0-0.6,0-1.2,0-1.7h0.8l0,1h0c0.2-0.7,0.8-1.2,1.5-1.2c0.1,0,0.2,0,0.3,0v0.9c-0.1,0-0.2,0-0.3,0
			c-0.7,0-1.2,0.5-1.3,1.2c0,0.1,0,0.3,0,0.5v2.8h-1V104.2z"/>
		<path class="st2" d="M318.9,106.8c0.3,0.2,0.8,0.4,1.3,0.4c0.7,0,1-0.4,1-0.8c0-0.5-0.3-0.7-1-1c-1-0.3-1.4-0.9-1.4-1.5
			c0-0.9,0.7-1.6,1.8-1.6c0.5,0,1,0.2,1.3,0.3l-0.2,0.7c-0.2-0.1-0.6-0.3-1.1-0.3c-0.6,0-0.9,0.3-0.9,0.7c0,0.4,0.3,0.6,1,0.9
			c0.9,0.4,1.4,0.8,1.4,1.6c0,0.9-0.7,1.6-2,1.6c-0.6,0-1.1-0.1-1.5-0.4L318.9,106.8z"/>
		<path class="st2" d="M323.4,100h1v3.3h0c0.2-0.3,0.4-0.5,0.7-0.7c0.3-0.2,0.6-0.3,1-0.3c0.7,0,1.9,0.4,1.9,2.3v3.2h-1v-3.1
			c0-0.9-0.3-1.6-1.2-1.6c-0.6,0-1.1,0.4-1.3,1c-0.1,0.1-0.1,0.3-0.1,0.5v3.2h-1V100z"/>
		<path class="st2" d="M330.6,101c0,0.3-0.2,0.6-0.6,0.6c-0.3,0-0.6-0.3-0.6-0.6c0-0.3,0.3-0.6,0.6-0.6
			C330.4,100.4,330.6,100.7,330.6,101z M329.5,107.8v-5.3h1v5.3H329.5z"/>
		<path class="st2" d="M332.1,104.2c0-0.7,0-1.2,0-1.7h0.9l0,0.9h0c0.4-0.6,1-1,1.9-1c1.3,0,2.3,1.1,2.3,2.7c0,1.9-1.2,2.9-2.4,2.9
			c-0.7,0-1.3-0.3-1.6-0.8h0v2.9h-1V104.2z M333.1,105.7c0,0.1,0,0.3,0,0.4c0.2,0.7,0.8,1.1,1.5,1.1c1,0,1.6-0.8,1.6-2.1
			c0-1.1-0.6-2-1.6-2c-0.7,0-1.3,0.5-1.5,1.2c0,0.1-0.1,0.3-0.1,0.4V105.7z"/>
		<path class="st2" d="M340.7,100.5c0.5-0.1,1.1-0.1,1.8-0.1c0.9,0,1.6,0.2,2.1,0.6c0.4,0.4,0.6,0.9,0.6,1.6c0,0.7-0.2,1.2-0.6,1.6
			c-0.5,0.5-1.3,0.8-2.3,0.8c-0.3,0-0.5,0-0.8-0.1v3h-1V100.5z M341.7,104.1c0.2,0.1,0.5,0.1,0.8,0.1c1.2,0,1.9-0.6,1.9-1.6
			c0-1-0.7-1.5-1.7-1.5c-0.4,0-0.7,0-0.9,0.1V104.1z"/>
		<path class="st2" d="M346.4,104.2c0-0.6,0-1.2,0-1.7h0.8l0,1h0c0.2-0.7,0.8-1.2,1.5-1.2c0.1,0,0.2,0,0.3,0v0.9c-0.1,0-0.2,0-0.3,0
			c-0.7,0-1.2,0.5-1.3,1.2c0,0.1,0,0.3,0,0.5v2.8h-1V104.2z"/>
		<path class="st2" d="M354.7,105.1c0,2-1.4,2.8-2.7,2.8c-1.4,0-2.6-1.1-2.6-2.7c0-1.8,1.2-2.8,2.6-2.8
			C353.7,102.4,354.7,103.5,354.7,105.1z M350.5,105.2c0,1.2,0.7,2,1.6,2c0.9,0,1.6-0.9,1.6-2.1c0-0.9-0.5-2-1.6-2
			C351,103.1,350.5,104.2,350.5,105.2z"/>
		<path class="st2" d="M360.5,102.5c0,0.4,0,0.8,0,1.5v3.1c0,1.2-0.2,2-0.8,2.4c-0.5,0.5-1.3,0.6-1.9,0.6c-0.6,0-1.3-0.2-1.8-0.4
			l0.2-0.7c0.4,0.2,0.9,0.4,1.6,0.4c1,0,1.7-0.5,1.7-1.9v-0.6h0c-0.3,0.5-0.9,0.9-1.7,0.9c-1.3,0-2.3-1.1-2.3-2.6
			c0-1.8,1.2-2.8,2.4-2.8c0.9,0,1.4,0.5,1.7,0.9h0l0-0.8H360.5z M359.5,104.6c0-0.2,0-0.3-0.1-0.4c-0.2-0.6-0.6-1-1.4-1
			c-0.9,0-1.6,0.8-1.6,2c0,1,0.5,1.9,1.6,1.9c0.6,0,1.1-0.4,1.3-1c0.1-0.2,0.1-0.4,0.1-0.5V104.6z"/>
		<path class="st2" d="M362,104.2c0-0.6,0-1.2,0-1.7h0.8l0,1h0c0.2-0.7,0.8-1.2,1.5-1.2c0.1,0,0.2,0,0.3,0v0.9c-0.1,0-0.2,0-0.3,0
			c-0.7,0-1.2,0.5-1.3,1.2c0,0.1,0,0.3,0,0.5v2.8h-1V104.2z"/>
		<path class="st2" d="M368.5,107.8l-0.1-0.7h0c-0.3,0.4-0.9,0.8-1.6,0.8c-1.1,0-1.6-0.8-1.6-1.5c0-1.3,1.1-2,3.2-2v-0.1
			c0-0.4-0.1-1.2-1.2-1.2c-0.5,0-1,0.2-1.4,0.4l-0.2-0.6c0.4-0.3,1.1-0.5,1.7-0.5c1.6,0,2,1.1,2,2.2v2c0,0.5,0,0.9,0.1,1.3H368.5z
			 M368.3,105.1c-1.1,0-2.3,0.2-2.3,1.2c0,0.6,0.4,0.9,0.9,0.9c0.7,0,1.1-0.4,1.3-0.9c0-0.1,0.1-0.2,0.1-0.3V105.1z"/>
		<path class="st2" d="M370.8,103.9c0-0.5,0-1,0-1.4h0.8l0,0.9h0c0.3-0.5,0.8-1,1.7-1c0.7,0,1.3,0.4,1.5,1.1h0
			c0.2-0.3,0.4-0.5,0.6-0.7c0.3-0.2,0.7-0.4,1.2-0.4c0.7,0,1.7,0.5,1.7,2.3v3.1h-0.9v-3c0-1-0.4-1.6-1.2-1.6c-0.5,0-1,0.4-1.1,0.9
			c0,0.1-0.1,0.3-0.1,0.5v3.3h-0.9v-3.2c0-0.8-0.4-1.5-1.1-1.5c-0.6,0-1,0.5-1.2,1c-0.1,0.1-0.1,0.3-0.1,0.5v3.2h-0.9V103.9z"/>
		<path class="st2" d="M380,103.9c0-0.5,0-1,0-1.4h0.8l0,0.9h0c0.3-0.5,0.8-1,1.7-1c0.7,0,1.3,0.4,1.5,1.1h0
			c0.2-0.3,0.4-0.5,0.6-0.7c0.3-0.2,0.7-0.4,1.2-0.4c0.7,0,1.7,0.5,1.7,2.3v3.1h-0.9v-3c0-1-0.4-1.6-1.2-1.6c-0.5,0-1,0.4-1.1,0.9
			c0,0.1-0.1,0.3-0.1,0.5v3.3h-0.9v-3.2c0-0.8-0.4-1.5-1.1-1.5c-0.6,0-1,0.5-1.2,1c-0.1,0.1-0.1,0.3-0.1,0.5v3.2H380V103.9z"/>
		<path class="st2" d="M389.7,105.3c0,1.3,0.9,1.8,1.8,1.8c0.7,0,1.1-0.1,1.5-0.3l0.2,0.7c-0.3,0.2-0.9,0.3-1.8,0.3
			c-1.6,0-2.6-1.1-2.6-2.7s0.9-2.9,2.5-2.9c1.7,0,2.2,1.5,2.2,2.5c0,0.2,0,0.4,0,0.5H389.7z M392.6,104.7c0-0.6-0.3-1.6-1.3-1.6
			c-1,0-1.4,0.9-1.5,1.6H392.6z"/>
	</g>
</g>
</svg>
