<?xml version="1.0" encoding="utf-8"?>
<!-- Generator: Adobe Illustrator 27.2.0, SVG Export Plug-In . SVG Version: 6.00 Build 0)  -->
<svg version="1.1" id="Livello_1" xmlns="http://www.w3.org/2000/svg" xmlns:xlink="http://www.w3.org/1999/xlink" x="0px" y="0px"
	 viewBox="0 0 129.7 110.8" style="enable-background:new 0 0 129.7 110.8;" xml:space="preserve">
<style type="text/css">
	.st0{fill:none;stroke:#FFFFFF;stroke-width:7;stroke-miterlimit:10;}
	.st1{fill:none;stroke:#FFFFFF;stroke-width:6;stroke-miterlimit:10;}
	.st2{fill:#FFFFFF;}
</style>
<path class="st0" d="M31.6,60.9l14.2,39.4c0,0,1.8,3.7,3.7,3.7s30.3-29.5,30.3-29.5l31.5-60.9L32.1,50.8L31.6,60.9z"/>
<path class="st1" d="M50.5,71.1l-2.7,29c0,0-1.1,8.9,7.8,0s17.4-15.8,17.4-15.8"/>
<path class="st2" d="M31.9,62.4L2.6,52.8c0,0-3.5-1.4-2.4-4.6c0.2-0.7,0.7-1.2,2.1-2.2C8.8,41.4,122.4,0.6,122.4,0.6
	s3.2-1.1,5.1-0.4c1,0.3,1.7,1.1,1.9,2.1c0.2,0.8,0.3,1.7,0.3,2.6c0,0.8-0.1,1.4-0.2,2.5c-0.7,11.2-21.4,94.5-21.4,94.5
	s-1.2,4.9-5.7,5c-2.2,0.1-4.3-0.8-5.9-2.3C87.8,97.2,57.7,76.9,51,72.5c-0.3-0.2-0.5-0.5-0.5-0.9c-0.1-0.5,0.4-1.1,0.4-1.1
	s52.4-46.6,53.8-51.5c0.1-0.4-0.3-0.6-0.8-0.4c-3.5,1.3-63.8,39.4-70.5,43.6C32.9,62.4,32.4,62.4,31.9,62.4z"/>
</svg>
